<svg width="20" height="15" viewBox="0 0 20 15" fill="none" xmlns="http://www.w3.org/2000/svg">
<g clip-path="url(#clip0_23_820)">
<path d="M4.54646 14.9264V7.23905L2.15042 5.05799L0.00182343 3.84766V13.5698C0.00182343 14.3204 0.61304 14.9264 1.36525 14.9264H4.54646Z" fill="#4285F4"/>
<path d="M15.4535 14.9263H18.6348C19.3892 14.9263 19.9982 14.318 19.9982 13.5697V3.84766L17.5646 5.23395L15.4535 7.23898V14.9263Z" fill="#34A853"/>
<path d="M4.54646 7.2388L4.22043 4.23514L4.54646 1.36035L10 5.43009L15.4535 1.36035L15.8182 4.07994L15.4535 7.2388L10 11.3085L4.54646 7.2388Z" fill="#EA4335"/>
<path d="M15.4535 1.36039V7.23884L19.9982 3.84744V2.03865C19.9982 0.361064 18.0735 -0.595283 16.7261 0.410805L15.4535 1.36039Z" fill="#FBBC04"/>
<path d="M0.00212097 3.84747L2.09229 5.40732L4.54676 7.23887V1.36043L3.27418 0.410841C1.92443 -0.595325 0.00212097 0.3611 0.00212097 2.03861V3.84739V3.84747Z" fill="#C5221F"/>
</g>
<defs>
<clipPath id="clip0_23_820">
<rect width="20" height="15" fill="white"/>
</clipPath>
</defs>
</svg>
