<svg width="62" height="62" viewBox="0 0 62 62" fill="none" xmlns="http://www.w3.org/2000/svg">
<g clip-path="url(#clip0_59_888)">
<path d="M30.7461 0.0788574C22.6551 0.0788574 14.8884 3.29569 9.17181 9.0161C3.44936 14.7388 0.233815 22.4998 0.232178 30.5928C0.232178 38.6823 3.45044 46.4491 9.17181 52.1695C14.8884 57.8899 22.6551 61.1067 30.7461 61.1067C38.8371 61.1067 46.6038 57.8899 52.3204 52.1695C58.0418 46.4491 61.26 38.6823 61.26 30.5928C61.26 22.5033 58.0418 14.7365 52.3204 9.0161C46.6038 3.29569 38.8371 0.0788574 30.7461 0.0788574Z" fill="url(#paint0_linear_59_888)"/>
<path d="M14.0447 30.2707C22.9414 26.3954 28.8725 23.8405 31.8381 22.6059C40.3153 19.0811 42.0746 18.4689 43.2236 18.4482C43.4763 18.4441 44.0389 18.5066 44.406 18.8034C44.7112 19.0537 44.797 19.3922 44.8399 19.6299C44.878 19.8673 44.9305 20.4085 44.8876 20.8309C44.4299 25.6559 42.4417 37.3647 41.4309 42.769C41.0066 45.0556 40.1627 45.8223 39.3474 45.8971C37.5738 46.0602 36.2292 44.7262 34.5128 43.6014C31.8286 41.8407 30.3124 40.745 27.7044 39.0272C24.6912 37.0419 26.646 35.9505 28.3624 34.1674C28.8105 33.7006 36.6202 26.599 36.768 25.9548C36.7871 25.8743 36.8062 25.5739 36.625 25.4156C36.4486 25.2568 36.1863 25.3112 35.9956 25.3541C35.7239 25.4151 31.4376 28.251 23.1226 33.8613C21.9068 34.6976 20.8054 35.1052 19.8137 35.0838C18.7266 35.0604 16.6288 34.4678 15.0697 33.9614C13.1626 33.3402 11.6417 33.0117 11.7752 31.9566C11.8419 31.4073 12.6 30.8452 14.0447 30.2707Z" fill="white"/>
</g>
<defs>
<linearGradient id="paint0_linear_59_888" x1="3051.63" y1="0.0788574" x2="3051.63" y2="6102.87" gradientUnits="userSpaceOnUse">
<stop stop-color="#2AABEE"/>
<stop offset="1" stop-color="#229ED9"/>
</linearGradient>
<clipPath id="clip0_59_888">
<rect width="61.0279" height="61.0279" fill="white" transform="translate(0.232178 0.0788574)"/>
</clipPath>
</defs>
</svg>
